# xmcd CD database file
#
# Track frame offsets:
#	150
#	7145
#	34464
#	42640
#	105332
#	185137
#	191245
#	212482
#	268855
#	274832
#	308537
#	320375
#
# Disc length: 4347 seconds
#
# Revision: 0
# Processed by: cddbd v1.5PL3 Copyright (c) Steve Scherf et al.
# Submitted via: CDex 1.51
#
DISCID=b410f90c
DTITLE=速水奨 - S.S.D.S. 愛の解体新書 I
DYEAR=2003
DGENRE=Comedy
TTITLE0=初診
TTITLE1=Dr. 降臨
TTITLE2=♪「刹那の英雄(あこがれ) Short Version」
TTITLE3=サトラ・・・れ？
TTITLE4=Gの法則
TTITLE5=Dr.HAYAMIの診察・壱
TTITLE6=♪「デオキシリボ助さん」
TTITLE7=謎の留学生
TTITLE8=Dr.HAYAMIの診察室・貳
TTITLE9=泣いて・・・囁いて
TTITLE10=再診予約
TTITLE11=S.S.C.R. (スーパースタイリッシュキャストロール)
EXTD=YEAR: 2003
EXTT0=
EXTT1=
EXTT2=
EXTT3=
EXTT4=
EXTT5=
EXTT6=
EXTT7=
EXTT8=
EXTT9=
EXTT10=
EXTT11=
PLAYORDER=
